# xmcd
#
# Track frame offsets:
#       150
#       18547
#       34952
#       56022
#       75755
#       93830
#       109240
#       123632
#       143227
#       166597
#       183007
#       199865
#       218584
#       239612
#
# Disc length: 3237 seconds
#
# Revision: 1
# Processed by: cddbd v1.5.1PL0 Copyright (c) Steve Scherf et al.
# Submitted via: MusiCat 1.1
#
DISCID=b50ca30e
DTITLE=Chico Buarque instrumental - Chico Buarque-instrumental/Aquilo del Nis
DTITLE=so
DYEAR=1900
DGENRE=
TTITLE0=A Banda
TTITLE1=Deixa a menina
TTITLE2=Samba e amor
TTITLE3=A mais bonita
TTITLE4=Homenagem ao malandro/Feijoada completa
TTITLE5=Não sonho mais
TTITLE6=Maninha
TTITLE7=Bom tempo
TTITLE8=Mil perdões
TTITLE9=Teresinha
TTITLE10=Noite dos mascarados
TTITLE11=O futebol
TTITLE12=Partido Alto
TTITLE13=A banda
EXTD=\n\n
EXTT0=
EXTT1=
EXTT2=
EXTT3=
EXTT4=
EXTT5=
EXTT6=
EXTT7=
EXTT8=
EXTT9=
EXTT10=
EXTT11=
EXTT12=
EXTT13=
PLAYORDER=
